<?xml version="1.0" standalone="no"?>
<!DOCTYPE svg PUBLIC "-//W3C//DTD SVG 20010904//EN"
 "http://www.w3.org/TR/2001/REC-SVG-20010904/DTD/svg10.dtd">
<svg version="1.0" xmlns="http://www.w3.org/2000/svg"
 width="317.000000pt" height="174.000000pt" viewBox="0 0 317.000000 174.000000"
 preserveAspectRatio="xMidYMid meet">

<g transform="translate(0.000000,174.000000) scale(0.100000,-0.100000)"
fill="#000000" stroke="none">
<path d="M972 1088 c-18 -18 -14 -46 7 -58 11 -5 22 -10 25 -10 8 0 36 31 36
40 0 13 -30 40 -44 40 -6 0 -17 -5 -24 -12z"/>
<path d="M1330 951 c0 -102 -3 -141 -12 -144 -7 -3 10 -6 37 -6 l50 -1 -3 48
-2 47 17 -25 c37 -52 64 -70 107 -70 33 1 37 3 24 11 -10 5 -36 36 -58 69
l-40 59 31 30 c17 17 27 31 23 31 -5 0 -30 -21 -56 -47 l-48 -47 0 92 0 92
-35 0 -35 0 0 -139z"/>
<path d="M1848 1037 c10 -11 12 -46 10 -126 l-3 -111 70 0 c89 0 129 22 145
78 27 103 -25 159 -157 169 -70 6 -77 5 -65 -10z m137 -28 c14 -13 20 -36 23
-81 3 -53 1 -67 -18 -90 -13 -17 -31 -28 -46 -28 l-24 0 0 116 c0 115 0 115
23 109 12 -4 31 -16 42 -26z"/>
<path d="M2152 1030 c-37 -23 -52 -54 -52 -111 0 -79 44 -122 123 -122 50 0
101 26 116 60 16 34 14 99 -4 133 -30 59 -120 78 -183 40z m115 -20 c16 -31
17 -141 1 -174 -20 -45 -66 -45 -87 0 -16 36 -14 140 5 175 12 24 21 30 42 27
16 -2 31 -13 39 -28z"/>
<path d="M690 1018 c0 -17 3 -19 9 -9 5 7 15 17 22 22 10 6 8 9 -8 9 -17 0
-23 -6 -23 -22z"/>
<path d="M765 920 l0 -120 35 0 35 0 0 120 0 120 -35 0 -35 0 0 -120z"/>
<path d="M882 1033 c9 -2 21 -16 27 -31 l9 -27 1 33 c1 29 -2 32 -26 31 -16
-1 -21 -3 -11 -6z"/>
<path d="M965 900 l0 -100 45 1 c25 0 39 3 33 6 -9 3 -13 33 -13 99 l0 94 -32
0 -33 0 0 -100z"/>
<path d="M1123 985 c-48 -33 -49 -133 -2 -167 35 -26 114 -28 137 -3 16 16 16
17 -5 6 -60 -31 -103 3 -103 82 0 31 6 61 16 75 14 20 14 22 -3 22 -10 0 -28
-7 -40 -15z"/>
<path d="M1210 966 c0 -41 24 -65 48 -49 25 15 26 39 3 62 -32 32 -51 27 -51
-13z"/>
<path d="M1634 898 c52 -98 54 -104 40 -130 -17 -33 -21 -34 -46 -11 -15 13
-23 15 -36 6 -26 -16 -21 -46 11 -57 37 -14 60 10 103 110 34 77 42 102 24 74
-7 -11 -16 0 -37 47 -28 62 -28 62 -71 63 l-43 0 55 -102z"/>
<path d="M1765 990 c4 -6 11 -8 16 -5 14 9 11 15 -7 15 -8 0 -12 -5 -9 -10z"/>
<path d="M1752 945 c-17 -37 -14 -45 4 -12 9 16 14 31 11 33 -2 2 -9 -7 -15
-21z"/>
</g>
</svg>
